<?xml version="1.0" encoding="utf-8"?>
<!-- Generator: Adobe Illustrator 15.0.0, SVG Export Plug-In . SVG Version: 6.00 Build 0)  -->
<!DOCTYPE svg PUBLIC "-//W3C//DTD SVG 1.1//EN" "http://www.w3.org/Graphics/SVG/1.1/DTD/svg11.dtd">
<svg version="1.1" id="Layer_1" xmlns="http://www.w3.org/2000/svg" xmlns:xlink="http://www.w3.org/1999/xlink" x="0px" y="0px"
	 width="1024px" height="273px" viewBox="0 0 1024 273" enable-background="new 0 0 1024 273" xml:space="preserve">
<linearGradient id="SVGID_1_" gradientUnits="userSpaceOnUse" x1="0" y1="136.6836" x2="1024" y2="136.6836">
	<stop  offset="0" style="stop-color:#FFDD00"/>
	<stop  offset="1" style="stop-color:#F47C28"/>
</linearGradient>
<rect y="0.367" fill="url(#SVGID_1_)" width="1024" height="272.633"/>
<g>
	<path fill="none" d="M358.833,273h305.805C563.571,258.48,460.646,258.481,358.833,273z"/>
	<path fill="none" d="M681.758,0H335.477c7.203,2,14.434,3.298,21.685,4.901C470.233,29.896,575.396,20,681.758,0z"/>
	<path fill="none" d="M79.634,201.126c-32.89,0.058-60.094,0.089-79.634,0.105V225.7c19.53-0.044,46.713-0.127,79.564-0.284
		c22.987-0.732,47.139-2.467,73.815-5.303C395.366,188,631.455,187.564,855.067,218.82c33.121,3.736,62.365,5.902,89.385,6.617
		c32.843,0.146,60.021,0.225,79.548,0.266v-24.47c-19.53-0.015-46.715-0.042-79.568-0.093
		C651.728,176.391,360.788,176.387,79.634,201.126z"/>
	<path fill="none" d="M878.477,247.223c-238.255-43.234-472.522-45.41-696.348-6.471c-33.887,6.756-65.16,8.838-102.52,10.858
		c-32.875,0.301-60.072,0.46-79.608,0.544V273h116.828c13.16-1.625,26.795-3.917,42.035-6.742
		c115.155-24.988,233.437-37.656,351.601-37.656c1.667,0,3.321,0.003,4.989,0.008c119.423,0.36,239.304,13.662,356.313,39.537
		c13.935,1.934,27.263,3.538,40.217,4.854H1024v-20.841c-19.532-0.08-46.718-0.23-79.574-0.515
		C924.979,250.816,901.96,249.643,878.477,247.223z"/>
	<path fill="none" d="M159.159,267.729c-11.085,2.055-21.321,3.829-31.146,5.271h111.825
		c60.999-11.447,123.847-21.346,187.348-26.747c107.979-9.185,204.793-3.946,295.974,16.015c8.937,1.891,17.761,3.781,26.497,5.654
		c8.001,1.716,15.918,3.412,23.777,5.078h124.632c-8.642-0.996-17.469-2.115-26.565-3.379
		C634.502,217.215,394.853,216.582,159.159,267.729z"/>
	<path fill="none" d="M570.938,36.069c63.789-5.574,123.158-18.247,186.013-31.566C763.868,3.038,770.843,2,777.844,0h-88.031
		C625.47,13,561.637,21.421,496.306,21.421c-45.536,0-91.783-4.422-139.468-14.963C347.458,4.384,338.112,3,328.82,0h-88.15
		C351.924,24,457.755,45.36,570.938,36.069z"/>
	<path fill="none" d="M79.6,176.24c-32.984,0.005-60.125,0.007-79.6,0.008v23.483c19.53-0.016,46.714-0.046,79.566-0.103
		c142.105-12.506,287.65-18.807,432.434-18.658c141.939,0.125,287.451,6.407,432.496,18.672c32.818,0.05,59.982,0.077,79.504,0.091
		v-23.485l-79.567-0.003C657.497,163.816,366.536,163.814,79.6,176.24z"/>
	<path fill="none" d="M423.089,51.255c118.717,14.184,229.209-5.846,346.189-27.055c38.316-6.947,77.938-14.314,117.613-20.126
		C896.344,2.582,906.118,1,916.348,0H785.137c-9.362,2-18.658,4.109-27.875,6.063C697.13,18.805,634.949,32.073,571.065,37.655
		c-18.591,1.526-36.999,2.09-55.246,2.09C420.484,39.746,329.089,21,233.504,0h-127.64c56.063,6,111.366,16.367,165.085,26.305
		C320.335,35.44,371.403,45.071,423.089,51.255z"/>
	<path fill="none" d="M854.88,220.308c-223.5-31.239-459.452-30.802-701.323,1.296c-26.732,2.841-50.92,4.578-73.965,5.312
		C46.726,227.072,19.534,227.156,0,227.2v23.454c19.529-0.084,46.711-0.243,79.561-0.543c37.266-2.016,68.484-4.094,102.292-10.833
		c112.672-19.603,230.074-28.802,348.975-27.342c114.999,1.411,232.036,12.783,347.859,33.803
		c23.387,2.407,46.379,3.579,65.777,4.406c32.836,0.284,60.01,0.435,79.535,0.515v-23.457c-19.531-0.041-46.716-0.119-79.57-0.266
		C917.35,226.221,888.063,224.053,854.88,220.308z"/>
	<path fill="none" d="M217.269,150.999c-45.891,0.095-91.79,0.19-137.699,0.274c-32.967-0.011-60.099-0.017-79.569-0.02v23.494
		c19.47-0.001,46.601-0.003,79.568-0.008c286.948-12.426,577.953-12.426,864.897,0.006l79.535,0.003v-23.498
		c-19.468,0.004-46.598,0.012-79.567,0.022C701.908,149.992,455.532,150.504,217.269,150.999z"/>
	<path fill="none" d="M887.117,5.558c-39.659,5.81-79.268,13.083-117.571,20.027c-89.714,16.265-175.627,31.887-264.39,31.887
		c-27.089,0-54.433-1.426-82.245-4.75c-51.734-6.19-102.826-15.813-152.235-24.954C212.192,16.949,151.831,6,90.726,0H0v22.856
		c19.532,0.095,46.719,0.273,79.576,0.609c66.846,2.633,133.14,13.996,197.251,24.984c52.509,8.999,106.805,18.305,161.235,22.803
		c62.439,4.306,117.054,3.672,171.861-1.999c46.938-4.984,93.738-13.028,138.998-20.808c63.49-10.913,129.142-22.197,195.479-25.017
		c32.871-0.319,60.065-0.488,79.601-0.578V0h-92.25C915.861,2,901.142,3.343,887.117,5.558z"/>
	<path fill="none" d="M669.111,80.742c-47.761,7.487-94.471,10.489-140.76,10.489c-89.918,0-178.297-11.318-270.053-23.067
		c-42.547-5.448-86.542-11.082-130.372-15.417c-15.86-1.982-31.674-2.995-48.363-3.098C46.712,49.461,19.53,49.362,0,49.31v24.466
		c19.531,0.022,46.716,0.066,79.57,0.147c66.691,0.723,134.025,8.289,199.142,15.605c54.452,6.119,110.757,12.445,166.319,14.722
		c69.127,3.096,136.719,1.75,200.903-3.998c21.817-2.182,43.887-4.495,65.23-6.732C787.221,85.548,865.866,77.304,944.4,73.91
		c32.871-0.075,60.064-0.115,79.6-0.136V49.306c-19.529,0.049-46.712,0.143-79.563,0.319
		C848.96,54.92,755.683,67.709,669.111,80.742z"/>
	<path fill="none" d="M749.175,49.924c-45.283,7.783-92.108,15.832-139.096,20.822c-31.074,3.214-62.087,4.813-94.49,4.813
		c-24.843,0-50.501-0.939-77.641-2.812c-54.505-4.504-108.834-13.816-161.375-22.821C212.51,38.948,146.265,27.594,79.538,24.965
		C46.7,24.629,19.526,24.451,0,24.356V47.81c19.532,0.053,46.717,0.152,79.572,0.339c16.749,0.103,32.62,1.119,48.521,3.107
		c43.832,4.334,87.838,9.97,130.396,15.419c138.882,17.784,270.062,34.581,410.395,12.583
		c86.612-13.038,179.931-25.833,275.508-31.133c32.876-0.177,60.072-0.27,79.608-0.32V24.352
		c-19.529,0.089-46.711,0.259-79.562,0.578C878.223,27.744,812.618,39.02,749.175,49.924z"/>
	<path fill="none" d="M770.052,129.748c-66.934,4.347-134.207,5.908-201.228,5.908c-87.116,0-173.813-2.637-258.89-5.225
		c-75.449-2.295-153.467-4.668-230.371-5.162c-32.965-0.009-60.094-0.016-79.563-0.019v24.503c19.47,0.003,46.602,0.009,79.568,0.02
		c45.908-0.084,91.806-0.18,137.697-0.274c238.266-0.494,484.645-1.006,727.171,0.274c32.965-0.011,60.095-0.019,79.563-0.023
		v-24.497c-19.469,0.002-46.6,0.007-79.567,0.015C890.945,123.879,833.909,125.344,770.052,129.748z"/>
	<path fill="none" d="M711.32,95.012c-21.345,2.237-43.417,4.551-65.246,6.734c-41.828,3.746-85.105,5.625-129.301,5.625
		c-23.699,0-47.655-0.54-71.807-1.621c-55.612-2.279-111.944-8.609-166.422-14.73c-65.08-7.313-132.375-14.874-198.985-15.596
		C46.71,75.342,19.529,75.298,0,75.276v23.482c19.47,0.007,46.602,0.021,79.568,0.048c43.567-0.529,88.217,1.249,136.497,5.447
		c185.497,20.029,380.678,19.412,632.872-2c30.821-2.89,62.062-4.017,95.509-3.455c32.959-0.023,60.087-0.033,79.555-0.038V75.274
		c-19.53,0.021-46.713,0.061-79.565,0.135C865.977,78.801,787.354,87.042,711.32,95.012z"/>
	<path fill="none" d="M849.07,103.747c-130.124,11.048-245.092,16.563-351.37,16.563c-99.788,0-191.913-4.86-281.781-14.564
		c-48.214-4.192-92.815-5.971-136.342-5.44c-32.972-0.026-60.106-0.041-79.577-0.048v23.494c19.471,0.003,46.603,0.009,79.568,0.018
		c76.927,0.494,154.954,2.867,230.411,5.162c150.494,4.578,306.111,9.311,459.972-0.68c63.902-4.406,120.983-5.874,174.501-4.484
		c32.957-0.008,60.082-0.014,79.548-0.017v-23.489c-19.47,0.004-46.601,0.014-79.566,0.037
		C911.028,99.733,879.843,100.862,849.07,103.747z"/>
	<path fill="none" d="M722.845,263.734c-161.116-35.27-313.482-20.516-474.597,9.266h100.287
		c108.598-16.521,218.582-16.522,326.332,0h91.357c-5.592-1.192-11.214-2.396-16.881-3.611
		C740.607,267.516,731.785,265.625,722.845,263.734z"/>
	<linearGradient id="SVGID_2_" gradientUnits="userSpaceOnUse" x1="-34" y1="266.8047" x2="1058" y2="266.8047">
		<stop  offset="0" style="stop-color:#FFFFFF;stop-opacity:0.4"/>
		<stop  offset="0.1" style="stop-color:#FFFFFF;stop-opacity:0.8"/>
		<stop  offset="0.2" style="stop-color:#FFFFFF;stop-opacity:0.2"/>
		<stop  offset="0.4" style="stop-color:#FFFFFF;stop-opacity:0"/>
		<stop  offset="0.6" style="stop-color:#FFFFFF;stop-opacity:0"/>
		<stop  offset="0.8" style="stop-color:#FFFFFF;stop-opacity:0.2"/>
		<stop  offset="0.9" style="stop-color:#FFFFFF;stop-opacity:0.7"/>
		<stop  offset="1" style="stop-color:#FFFFFF;stop-opacity:0.4"/>
	</linearGradient>
	<path fill="url(#SVGID_2_)" d="M348.534,273h10.299c101.813-14.519,204.738-14.52,305.805,0h10.228
		C567.116,256.478,457.132,256.479,348.534,273z"/>
	<linearGradient id="SVGID_3_" gradientUnits="userSpaceOnUse" x1="-34" y1="257.4375" x2="1058" y2="257.4375">
		<stop  offset="0" style="stop-color:#FFFFFF;stop-opacity:0.4"/>
		<stop  offset="0.1" style="stop-color:#FFFFFF;stop-opacity:0.8"/>
		<stop  offset="0.2" style="stop-color:#FFFFFF;stop-opacity:0.2"/>
		<stop  offset="0.4" style="stop-color:#FFFFFF;stop-opacity:0"/>
		<stop  offset="0.6" style="stop-color:#FFFFFF;stop-opacity:0"/>
		<stop  offset="0.8" style="stop-color:#FFFFFF;stop-opacity:0.2"/>
		<stop  offset="0.9" style="stop-color:#FFFFFF;stop-opacity:0.7"/>
		<stop  offset="1" style="stop-color:#FFFFFF;stop-opacity:0.4"/>
	</linearGradient>
	<path fill="url(#SVGID_3_)" d="M723.16,262.268c-91.181-19.961-187.994-25.199-295.974-16.015
		c-63.501,5.401-126.35,15.3-187.348,26.747h8.409c161.115-29.781,313.481-44.535,474.597-9.266
		c8.94,1.891,17.763,3.781,26.498,5.654c5.667,1.215,11.289,2.419,16.881,3.611h7.211c-7.859-1.666-15.776-3.362-23.777-5.078
		C740.921,266.049,732.097,264.158,723.16,262.268z"/>
	<linearGradient id="SVGID_4_" gradientUnits="userSpaceOnUse" x1="-34" y1="250.8008" x2="1058" y2="250.8008">
		<stop  offset="0" style="stop-color:#FFFFFF;stop-opacity:0.4"/>
		<stop  offset="0.1" style="stop-color:#FFFFFF;stop-opacity:0.8"/>
		<stop  offset="0.2" style="stop-color:#FFFFFF;stop-opacity:0.2"/>
		<stop  offset="0.4" style="stop-color:#FFFFFF;stop-opacity:0"/>
		<stop  offset="0.6" style="stop-color:#FFFFFF;stop-opacity:0"/>
		<stop  offset="0.8" style="stop-color:#FFFFFF;stop-opacity:0.2"/>
		<stop  offset="0.9" style="stop-color:#FFFFFF;stop-opacity:0.7"/>
		<stop  offset="1" style="stop-color:#FFFFFF;stop-opacity:0.4"/>
	</linearGradient>
	<path fill="url(#SVGID_4_)" d="M515.453,228.609c-1.668-0.005-3.321-0.008-4.989-0.008c-118.164,0-236.446,12.668-351.601,37.656
		c-15.24,2.825-28.875,5.117-42.035,6.742h11.185c9.825-1.442,20.061-3.217,31.146-5.271
		c235.694-51.146,475.343-50.514,712.342,1.893c9.097,1.264,17.924,2.383,26.565,3.379h13.917
		c-12.954-1.315-26.282-2.92-40.217-4.854C754.757,242.271,634.876,228.97,515.453,228.609z"/>
	<linearGradient id="SVGID_5_" gradientUnits="userSpaceOnUse" x1="-34" y1="231.9727" x2="1058" y2="231.9727">
		<stop  offset="0" style="stop-color:#FFFFFF;stop-opacity:0.4"/>
		<stop  offset="0.1" style="stop-color:#FFFFFF;stop-opacity:0.8"/>
		<stop  offset="0.2" style="stop-color:#FFFFFF;stop-opacity:0.2"/>
		<stop  offset="0.4" style="stop-color:#FFFFFF;stop-opacity:0"/>
		<stop  offset="0.6" style="stop-color:#FFFFFF;stop-opacity:0"/>
		<stop  offset="0.8" style="stop-color:#FFFFFF;stop-opacity:0.2"/>
		<stop  offset="0.9" style="stop-color:#FFFFFF;stop-opacity:0.7"/>
		<stop  offset="1" style="stop-color:#FFFFFF;stop-opacity:0.4"/>
	</linearGradient>
	<path fill="url(#SVGID_5_)" d="M878.688,245.739c-115.823-21.02-232.86-32.392-347.859-33.803
		c-118.9-1.46-236.302,7.739-348.975,27.342c-33.808,6.739-65.027,8.817-102.292,10.833c-32.85,0.3-60.032,0.459-79.561,0.543v1.5
		c19.537-0.084,46.733-0.243,79.608-0.544c37.36-2.021,68.633-4.103,102.52-10.858c223.826-38.939,458.093-36.764,696.348,6.471
		c23.483,2.42,46.503,3.594,65.949,4.422c32.856,0.284,60.042,0.435,79.574,0.515v-1.499c-19.525-0.08-46.699-0.23-79.535-0.515
		C925.066,249.318,902.074,248.146,878.688,245.739z"/>
	<linearGradient id="SVGID_6_" gradientUnits="userSpaceOnUse" x1="-34" y1="211.4512" x2="1058" y2="211.4512">
		<stop  offset="0" style="stop-color:#FFFFFF;stop-opacity:0.4"/>
		<stop  offset="0.1" style="stop-color:#FFFFFF;stop-opacity:0.8"/>
		<stop  offset="0.2" style="stop-color:#FFFFFF;stop-opacity:0.2"/>
		<stop  offset="0.4" style="stop-color:#FFFFFF;stop-opacity:0"/>
		<stop  offset="0.6" style="stop-color:#FFFFFF;stop-opacity:0"/>
		<stop  offset="0.8" style="stop-color:#FFFFFF;stop-opacity:0.2"/>
		<stop  offset="0.9" style="stop-color:#FFFFFF;stop-opacity:0.7"/>
		<stop  offset="1" style="stop-color:#FFFFFF;stop-opacity:0.4"/>
	</linearGradient>
	<path fill="url(#SVGID_6_)" d="M855.067,218.82c-223.612-31.256-459.702-30.82-701.688,1.293
		c-26.676,2.836-50.828,4.57-73.815,5.303C46.713,225.573,19.53,225.656,0,225.7v1.5c19.534-0.044,46.726-0.128,79.592-0.285
		c23.045-0.733,47.233-2.471,73.965-5.312c241.871-32.098,477.823-32.535,701.323-1.296c33.184,3.745,62.47,5.913,89.55,6.63
		c32.854,0.146,60.039,0.225,79.57,0.266v-1.5c-19.527-0.041-46.705-0.119-79.548-0.266
		C917.433,224.723,888.188,222.557,855.067,218.82z"/>
	<linearGradient id="SVGID_7_" gradientUnits="userSpaceOnUse" x1="-34" y1="191.1006" x2="1058" y2="191.1006">
		<stop  offset="0" style="stop-color:#FFFFFF;stop-opacity:0.4"/>
		<stop  offset="0.1" style="stop-color:#FFFFFF;stop-opacity:0.8"/>
		<stop  offset="0.2" style="stop-color:#FFFFFF;stop-opacity:0.2"/>
		<stop  offset="0.4" style="stop-color:#FFFFFF;stop-opacity:0"/>
		<stop  offset="0.6" style="stop-color:#FFFFFF;stop-opacity:0"/>
		<stop  offset="0.8" style="stop-color:#FFFFFF;stop-opacity:0.2"/>
		<stop  offset="0.9" style="stop-color:#FFFFFF;stop-opacity:0.7"/>
		<stop  offset="1" style="stop-color:#FFFFFF;stop-opacity:0.4"/>
	</linearGradient>
	<path fill="url(#SVGID_7_)" d="M512,180.971c-144.784-0.148-290.329,6.152-432.434,18.658C46.714,199.686,19.53,199.716,0,199.731
		v1.5c19.54-0.017,46.744-0.048,79.634-0.105c281.154-24.739,572.094-24.735,864.798,0.015c32.854,0.051,60.038,0.078,79.568,0.093
		v-1.5c-19.521-0.014-46.686-0.041-79.504-0.091C799.451,187.378,653.939,181.096,512,180.971z"/>
	<linearGradient id="SVGID_8_" gradientUnits="userSpaceOnUse" x1="-34" y1="170.835" x2="1058" y2="170.835">
		<stop  offset="0" style="stop-color:#FFFFFF;stop-opacity:0.4"/>
		<stop  offset="0.1" style="stop-color:#FFFFFF;stop-opacity:0.8"/>
		<stop  offset="0.2" style="stop-color:#FFFFFF;stop-opacity:0.2"/>
		<stop  offset="0.4" style="stop-color:#FFFFFF;stop-opacity:0"/>
		<stop  offset="0.6" style="stop-color:#FFFFFF;stop-opacity:0"/>
		<stop  offset="0.8" style="stop-color:#FFFFFF;stop-opacity:0.2"/>
		<stop  offset="0.9" style="stop-color:#FFFFFF;stop-opacity:0.7"/>
		<stop  offset="1" style="stop-color:#FFFFFF;stop-opacity:0.4"/>
	</linearGradient>
	<path fill="url(#SVGID_8_)" d="M79.568,174.74C46.601,174.745,19.47,174.747,0,174.748v1.5c19.475-0.001,46.616-0.003,79.6-0.008
		c286.936-12.426,577.897-12.424,864.833,0.005l79.567,0.003v-1.499l-79.535-0.003C657.521,162.314,366.516,162.314,79.568,174.74z"
		/>
	<linearGradient id="SVGID_9_" gradientUnits="userSpaceOnUse" x1="-34" y1="150.1211" x2="1058" y2="150.1211">
		<stop  offset="0" style="stop-color:#FFFFFF;stop-opacity:0.4"/>
		<stop  offset="0.1" style="stop-color:#FFFFFF;stop-opacity:0.8"/>
		<stop  offset="0.2" style="stop-color:#FFFFFF;stop-opacity:0.2"/>
		<stop  offset="0.4" style="stop-color:#FFFFFF;stop-opacity:0"/>
		<stop  offset="0.6" style="stop-color:#FFFFFF;stop-opacity:0"/>
		<stop  offset="0.8" style="stop-color:#FFFFFF;stop-opacity:0.2"/>
		<stop  offset="0.9" style="stop-color:#FFFFFF;stop-opacity:0.7"/>
		<stop  offset="1" style="stop-color:#FFFFFF;stop-opacity:0.4"/>
	</linearGradient>
	<path fill="url(#SVGID_9_)" d="M217.265,149.499c-45.891,0.095-91.789,0.19-137.697,0.274c-32.967-0.011-60.099-0.017-79.568-0.02
		v1.5c19.47,0.003,46.602,0.009,79.569,0.02c45.909-0.084,91.808-0.18,137.699-0.274c238.263-0.495,484.64-1.007,727.164,0.274
		c32.97-0.011,60.1-0.019,79.567-0.022v-1.501c-19.469,0.005-46.599,0.013-79.563,0.023
		C701.91,148.493,455.531,149.005,217.265,149.499z"/>
	<linearGradient id="SVGID_10_" gradientUnits="userSpaceOnUse" x1="-34" y1="129.459" x2="1058" y2="129.459">
		<stop  offset="0" style="stop-color:#FFFFFF;stop-opacity:0.4"/>
		<stop  offset="0.1" style="stop-color:#FFFFFF;stop-opacity:0.8"/>
		<stop  offset="0.2" style="stop-color:#FFFFFF;stop-opacity:0.2"/>
		<stop  offset="0.4" style="stop-color:#FFFFFF;stop-opacity:0"/>
		<stop  offset="0.6" style="stop-color:#FFFFFF;stop-opacity:0"/>
		<stop  offset="0.8" style="stop-color:#FFFFFF;stop-opacity:0.2"/>
		<stop  offset="0.9" style="stop-color:#FFFFFF;stop-opacity:0.7"/>
		<stop  offset="1" style="stop-color:#FFFFFF;stop-opacity:0.4"/>
	</linearGradient>
	<path fill="url(#SVGID_10_)" d="M769.951,128.252c-153.86,9.99-309.478,5.258-459.972,0.68
		c-75.458-2.295-153.484-4.668-230.411-5.162c-32.966-0.009-60.098-0.015-79.568-0.018v1.499c19.469,0.003,46.598,0.01,79.563,0.019
		c76.904,0.494,154.922,2.867,230.371,5.162c85.077,2.588,171.774,5.225,258.89,5.225c67.021,0,134.294-1.562,201.228-5.908
		c63.857-4.404,120.894-5.869,174.381-4.48c32.968-0.008,60.099-0.013,79.567-0.015v-1.502c-19.466,0.003-46.591,0.009-79.548,0.017
		C890.935,122.378,833.854,123.846,769.951,128.252z"/>
	<linearGradient id="SVGID_11_" gradientUnits="userSpaceOnUse" x1="-34" y1="109.4839" x2="1058" y2="109.4839">
		<stop  offset="0" style="stop-color:#FFFFFF;stop-opacity:0.4"/>
		<stop  offset="0.1" style="stop-color:#FFFFFF;stop-opacity:0.8"/>
		<stop  offset="0.2" style="stop-color:#FFFFFF;stop-opacity:0.2"/>
		<stop  offset="0.4" style="stop-color:#FFFFFF;stop-opacity:0"/>
		<stop  offset="0.6" style="stop-color:#FFFFFF;stop-opacity:0"/>
		<stop  offset="0.8" style="stop-color:#FFFFFF;stop-opacity:0.2"/>
		<stop  offset="0.9" style="stop-color:#FFFFFF;stop-opacity:0.7"/>
		<stop  offset="1" style="stop-color:#FFFFFF;stop-opacity:0.4"/>
	</linearGradient>
	<path fill="url(#SVGID_11_)" d="M848.937,102.253c-252.193,21.412-447.375,22.029-632.872,2
		c-48.279-4.198-92.929-5.977-136.497-5.447C46.602,98.779,19.47,98.765,0,98.758v1.5c19.471,0.007,46.605,0.021,79.577,0.048
		c43.527-0.531,88.128,1.248,136.342,5.44c89.868,9.704,181.993,14.564,281.781,14.564c106.278,0,221.246-5.515,351.37-16.563
		c30.772-2.885,61.958-4.013,95.363-3.448c32.966-0.023,60.097-0.032,79.566-0.037V98.76c-19.468,0.005-46.596,0.015-79.555,0.038
		C910.998,98.236,879.758,99.363,848.937,102.253z"/>
	<linearGradient id="SVGID_12_" gradientUnits="userSpaceOnUse" x1="-34" y1="90.5723" x2="1058" y2="90.5723">
		<stop  offset="0" style="stop-color:#FFFFFF;stop-opacity:0.4"/>
		<stop  offset="0.1" style="stop-color:#FFFFFF;stop-opacity:0.8"/>
		<stop  offset="0.2" style="stop-color:#FFFFFF;stop-opacity:0.2"/>
		<stop  offset="0.4" style="stop-color:#FFFFFF;stop-opacity:0"/>
		<stop  offset="0.6" style="stop-color:#FFFFFF;stop-opacity:0"/>
		<stop  offset="0.8" style="stop-color:#FFFFFF;stop-opacity:0.2"/>
		<stop  offset="0.9" style="stop-color:#FFFFFF;stop-opacity:0.7"/>
		<stop  offset="1" style="stop-color:#FFFFFF;stop-opacity:0.4"/>
	</linearGradient>
	<path fill="url(#SVGID_12_)" d="M711.164,93.521c-21.344,2.237-43.413,4.551-65.23,6.732
		c-64.184,5.748-131.775,7.093-200.903,3.998c-55.562-2.277-111.867-8.604-166.319-14.722
		C213.595,82.212,146.261,74.646,79.57,73.923C46.716,73.842,19.531,73.798,0,73.776v1.5c19.529,0.022,46.71,0.066,79.56,0.147
		c66.609,0.722,133.905,8.284,198.985,15.596c54.478,6.122,110.81,12.451,166.422,14.73c24.152,1.081,48.108,1.621,71.807,1.621
		c44.195,0,87.473-1.878,129.301-5.625c21.829-2.183,43.901-4.497,65.246-6.734c76.034-7.97,154.656-16.211,233.114-19.604
		c32.853-0.074,60.035-0.114,79.565-0.135v-1.5c-19.535,0.021-46.729,0.061-79.6,0.136
		C865.866,77.304,787.221,85.548,711.164,93.521z"/>
	<linearGradient id="SVGID_13_" gradientUnits="userSpaceOnUse" x1="-34" y1="69.5186" x2="1058" y2="69.5186">
		<stop  offset="0" style="stop-color:#FFFFFF;stop-opacity:0.4"/>
		<stop  offset="0.1" style="stop-color:#FFFFFF;stop-opacity:0.8"/>
		<stop  offset="0.2" style="stop-color:#FFFFFF;stop-opacity:0.2"/>
		<stop  offset="0.4" style="stop-color:#FFFFFF;stop-opacity:0"/>
		<stop  offset="0.6" style="stop-color:#FFFFFF;stop-opacity:0"/>
		<stop  offset="0.8" style="stop-color:#FFFFFF;stop-opacity:0.2"/>
		<stop  offset="0.9" style="stop-color:#FFFFFF;stop-opacity:0.7"/>
		<stop  offset="1" style="stop-color:#FFFFFF;stop-opacity:0.4"/>
	</linearGradient>
	<path fill="url(#SVGID_13_)" d="M668.884,79.259c-140.333,21.997-271.513,5.2-410.395-12.583
		c-42.558-5.45-86.564-11.085-130.396-15.419c-15.9-1.988-31.771-3.004-48.521-3.107C46.717,47.961,19.532,47.862,0,47.81v1.5
		c19.53,0.053,46.712,0.152,79.563,0.339c16.689,0.103,32.502,1.115,48.363,3.098c43.83,4.334,87.825,9.968,130.372,15.417
		c91.756,11.75,180.135,23.067,270.053,23.067c46.289,0,92.999-3.002,140.76-10.489C755.683,67.709,848.96,54.92,944.437,49.625
		c32.852-0.176,60.034-0.27,79.563-0.319v-1.5c-19.536,0.05-46.732,0.143-79.608,0.32C848.814,53.425,755.496,66.221,668.884,79.259
		z"/>
	<linearGradient id="SVGID_14_" gradientUnits="userSpaceOnUse" x1="-34" y1="49.2056" x2="1058" y2="49.2056">
		<stop  offset="0" style="stop-color:#FFFFFF;stop-opacity:0.4"/>
		<stop  offset="0.1" style="stop-color:#FFFFFF;stop-opacity:0.8"/>
		<stop  offset="0.2" style="stop-color:#FFFFFF;stop-opacity:0.2"/>
		<stop  offset="0.4" style="stop-color:#FFFFFF;stop-opacity:0"/>
		<stop  offset="0.6" style="stop-color:#FFFFFF;stop-opacity:0"/>
		<stop  offset="0.8" style="stop-color:#FFFFFF;stop-opacity:0.2"/>
		<stop  offset="0.9" style="stop-color:#FFFFFF;stop-opacity:0.7"/>
		<stop  offset="1" style="stop-color:#FFFFFF;stop-opacity:0.4"/>
	</linearGradient>
	<path fill="url(#SVGID_14_)" d="M748.921,48.446c-45.26,7.779-92.061,15.823-138.998,20.808
		c-54.808,5.671-109.422,6.305-171.861,1.999c-54.43-4.498-108.726-13.804-161.235-22.803
		C212.715,37.461,146.421,26.099,79.576,23.465C46.719,23.129,19.532,22.951,0,22.856v1.5c19.526,0.095,46.7,0.272,79.538,0.608
		c66.727,2.629,132.972,13.983,197.035,24.962c52.541,9.005,106.87,18.316,161.375,22.821c27.139,1.872,52.798,2.812,77.641,2.812
		c32.403,0,63.416-1.599,94.49-4.813c46.987-4.99,93.813-13.039,139.096-20.822c63.443-10.905,129.048-22.181,195.264-24.995
		c32.851-0.319,60.032-0.488,79.562-0.578v-1.5c-19.535,0.09-46.729,0.259-79.601,0.578
		C878.063,26.249,812.411,37.533,748.921,48.446z"/>
	<linearGradient id="SVGID_15_" gradientUnits="userSpaceOnUse" x1="-34" y1="28.7588" x2="1058" y2="28.7588">
		<stop  offset="0" style="stop-color:#FFFFFF;stop-opacity:0.4"/>
		<stop  offset="0.1" style="stop-color:#FFFFFF;stop-opacity:0.8"/>
		<stop  offset="0.2" style="stop-color:#FFFFFF;stop-opacity:0.2"/>
		<stop  offset="0.4" style="stop-color:#FFFFFF;stop-opacity:0"/>
		<stop  offset="0.6" style="stop-color:#FFFFFF;stop-opacity:0"/>
		<stop  offset="0.8" style="stop-color:#FFFFFF;stop-opacity:0.2"/>
		<stop  offset="0.9" style="stop-color:#FFFFFF;stop-opacity:0.7"/>
		<stop  offset="1" style="stop-color:#FFFFFF;stop-opacity:0.4"/>
	</linearGradient>
	<path fill="url(#SVGID_15_)" d="M422.911,52.745c27.812,3.324,55.156,4.773,82.245,4.773c88.763,0,174.676-15.576,264.39-31.841
		c38.304-6.945,77.912-14.31,117.571-20.119C901.142,3.343,915.861,2,931.75,0h-15.402c-10.229,1-20.004,2.582-29.456,4.074
		c-39.676,5.813-79.297,13.088-117.613,20.035C652.299,45.317,541.807,65.394,423.089,51.209
		c-51.687-6.185-102.754-15.792-152.141-24.928C217.229,16.344,161.927,6,105.864,0H90.726c61.105,6,121.467,16.96,179.95,27.779
		C320.085,36.92,371.177,46.554,422.911,52.745z"/>
	<linearGradient id="SVGID_16_" gradientUnits="userSpaceOnUse" x1="-34" y1="19.8955" x2="1058" y2="19.8955">
		<stop  offset="0" style="stop-color:#FFFFFF;stop-opacity:0.4"/>
		<stop  offset="0.1" style="stop-color:#FFFFFF;stop-opacity:0.8"/>
		<stop  offset="0.2" style="stop-color:#FFFFFF;stop-opacity:0.2"/>
		<stop  offset="0.4" style="stop-color:#FFFFFF;stop-opacity:0"/>
		<stop  offset="0.6" style="stop-color:#FFFFFF;stop-opacity:0"/>
		<stop  offset="0.8" style="stop-color:#FFFFFF;stop-opacity:0.2"/>
		<stop  offset="0.9" style="stop-color:#FFFFFF;stop-opacity:0.7"/>
		<stop  offset="1" style="stop-color:#FFFFFF;stop-opacity:0.4"/>
	</linearGradient>
	<path fill="url(#SVGID_16_)" d="M571.065,37.747c63.884-5.582,126.064-18.942,186.196-31.685C766.479,4.109,775.774,2,785.137,0
		h-7.293c-7.001,2-13.976,3.129-20.893,4.595c-62.854,13.319-122.224,25.809-186.013,31.383C457.755,45.269,351.924,24,240.67,0
		h-7.166c95.585,21,186.98,39.791,282.315,39.791C534.066,39.791,552.475,39.273,571.065,37.747z"/>
	<linearGradient id="SVGID_17_" gradientUnits="userSpaceOnUse" x1="-34" y1="10.7104" x2="1058" y2="10.7104">
		<stop  offset="0" style="stop-color:#FFFFFF;stop-opacity:0.4"/>
		<stop  offset="0.1" style="stop-color:#FFFFFF;stop-opacity:0.8"/>
		<stop  offset="0.2" style="stop-color:#FFFFFF;stop-opacity:0.2"/>
		<stop  offset="0.4" style="stop-color:#FFFFFF;stop-opacity:0"/>
		<stop  offset="0.6" style="stop-color:#FFFFFF;stop-opacity:0"/>
		<stop  offset="0.8" style="stop-color:#FFFFFF;stop-opacity:0.2"/>
		<stop  offset="0.9" style="stop-color:#FFFFFF;stop-opacity:0.7"/>
		<stop  offset="1" style="stop-color:#FFFFFF;stop-opacity:0.4"/>
	</linearGradient>
	<path fill="url(#SVGID_17_)" d="M496.306,21.421C561.637,21.421,625.47,13,689.813,0h-8.055
		C575.396,20,470.233,29.896,357.162,4.901C349.911,3.298,342.68,2,335.477,0h-6.657c9.292,3,18.639,4.384,28.019,6.458
		C404.523,16.999,450.77,21.421,496.306,21.421z"/>
</g>
</svg>
