<?xml version="1.0" encoding="utf-8"?>
<!-- Generator: Adobe Illustrator 15.0.0, SVG Export Plug-In . SVG Version: 6.00 Build 0)  -->
<!DOCTYPE svg PUBLIC "-//W3C//DTD SVG 1.1//EN" "http://www.w3.org/Graphics/SVG/1.1/DTD/svg11.dtd">
<svg version="1.1" id="Layer_1" xmlns="http://www.w3.org/2000/svg" xmlns:xlink="http://www.w3.org/1999/xlink" x="0px" y="0px"
	 width="181.633px" height="60px" viewBox="0 0 181.633 60" enable-background="new 0 0 181.633 60" xml:space="preserve">
<g>
	<g>
		<g>
			<path fill="#FCC30B" d="M67.68,48.027V15.57h5.144v14.367h12.726V15.57h5.144v32.457h-5.144V34.726H72.823v13.301H67.68z"/>
			<path fill="#FCC30B" d="M93.707,24.483h5.453l4.656,17.159c0.178,0.65,0.414,1.08,0.709,1.285c0.296,0.208,0.539,0.342,0.732,0.4
				c0.191,0.059,0.354,0.088,0.487,0.088s0.348-0.014,0.644-0.044l5.453-18.889h5.455l-8.958,30.993L105.059,60h-3.548l3.636-11.973
				c-3.223,0-5.365-1.861-6.429-5.586L93.707,24.483z"/>
			<path fill="#FCC30B" d="M119.113,36.367c0-4.878,0.725-8.204,2.174-9.977c1.211-1.508,3.059-2.262,5.541-2.262
				c1.064,0,2.328,0.149,3.792,0.443c1.464,0.296,2.771,0.695,3.925,1.197V13.221h5.099v34.806h-4.079l-1.064-2.482
				c-0.798,0.65-1.945,1.271-3.438,1.862s-2.903,0.886-4.234,0.886C121.686,48.292,119.113,44.318,119.113,36.367z M124.258,36.632
				c0,4.729,1.197,7.094,3.591,7.094c2.335,0,4.552-0.561,6.651-1.685V29.405c-2.011-0.65-4.229-0.976-6.651-0.976
				c-0.798,0-1.448,0.192-1.95,0.577C124.805,29.863,124.258,32.405,124.258,36.632z"/>
			<path fill="#FCC30B" d="M151.438,25.857c0.592-0.384,1.374-0.754,2.35-1.108c0.976-0.355,2.068-0.532,3.281-0.532
				c1.212,0,2.055,0.104,2.527,0.311v5.01c-0.77-0.118-1.893-0.177-3.369-0.177c-1.479,0-2.735,0.185-3.77,0.554
				c-1.035,0.37-2.1,1.057-3.191,2.062v16.05h-5.145V24.483h4.168l0.977,2.971C150.121,26.774,150.846,26.242,151.438,25.857z"/>
			<path fill="#FCC30B" d="M162.744,25.502c2.838-0.975,6.547-1.463,11.129-1.463c5.173,0,7.76,2.424,7.76,7.272v16.715h-3.99
				l-1.153-2.705c-0.089,0.178-0.525,0.488-1.308,0.932c-0.784,0.443-1.826,0.895-3.127,1.353s-2.498,0.687-3.591,0.687
				c-2.011,0-3.592-0.59-4.745-1.773c-1.152-1.182-1.729-2.631-1.729-4.345v-2.394c0-1.834,0.547-3.333,1.641-4.502
				c1.094-1.167,2.845-1.751,5.254-1.751c2.408,0,4.944,0,7.604,0c0.029-0.679,0.044-1.189,0.044-1.529s-0.015-0.51-0.044-0.51
				c0-1.212-0.273-2.04-0.82-2.483c-0.548-0.444-1.382-0.665-2.505-0.665c-2.188,0-5.662,0.162-10.42,0.487V25.502z M167.133,41.553
				c0,0.917,0.207,1.538,0.621,1.862c0.414,0.326,1.02,0.488,1.818,0.488c0.798,0,1.78-0.162,2.948-0.488
				c1.168-0.324,2.121-0.649,2.86-0.975l1.108-0.488v-5.055l-7.184,0.532c-1.448,0.147-2.173,1.005-2.173,2.571V41.553z"/>
		</g>
	</g>
	<linearGradient id="SVGID_1_" gradientUnits="userSpaceOnUse" x1="0" y1="29.7524" x2="31.9917" y2="29.7524">
		<stop  offset="0" style="stop-color:#F8A119"/>
		<stop  offset="1" style="stop-color:#FBBC0D"/>
	</linearGradient>
	<path fill="url(#SVGID_1_)" d="M28.422,8.242c0,0-19.866-8.295-26.478,3.139C-9.313,30.853,31.992,54.169,31.992,54.169
		S10.084,25.404,12.021,14.026C13.558,4.985,28.422,8.242,28.422,8.242z"/>
	<linearGradient id="SVGID_2_" gradientUnits="userSpaceOnUse" x1="17.6943" y1="36.1528" x2="51.5151" y2="36.1528">
		<stop  offset="0.1455" style="stop-color:#F7941E"/>
		<stop  offset="0.6788" style="stop-color:#FBBC0D"/>
		<stop  offset="1" style="stop-color:#F8A119"/>
	</linearGradient>
	<path fill="url(#SVGID_2_)" d="M24.727,12.748c0,0,26.05,3.501,24.387,16.623c-1.663,13.122-18.978,14.441-18.228,21.607
		c0.676,6.479,20.629,5.371,20.629,5.371s-32.701,10.715-33.81-7.021c-0.541-8.667,18.437-13.009,19.967-19.122
		C39.704,22.082,24.727,12.748,24.727,12.748z"/>
	<linearGradient id="SVGID_3_" gradientUnits="userSpaceOnUse" x1="16.5586" y1="3.144" x2="42.1111" y2="60.5359">
		<stop  offset="0.303" style="stop-color:#FFDC00"/>
		<stop  offset="0.6242" style="stop-color:#BA7913"/>
		<stop  offset="0.8242" style="stop-color:#FBBC0D"/>
	</linearGradient>
	<path fill="url(#SVGID_3_)" d="M23.619,0c0,0,12.043,6.453,14.041,11.455C42.601,23.833,1.138,24.273,9.854,48.312
		c7.065,19.484,41.661,8.037,41.661,8.037s-30.576,0.738-32.607-12.471c-1.815-11.801,29.098-15.611,28.728-30.392
		C47.426,5.102,23.619,0,23.619,0z"/>
</g>
</svg>
